<mxfile host="65bd71144e">
    <diagram id="pvWAJ8nlHvZoQMCfwGxO" name="Page-1">
        <mxGraphModel dx="860" dy="379" grid="1" gridSize="10" guides="1" tooltips="1" connect="1" arrows="1" fold="1" page="1" pageScale="1" pageWidth="850" pageHeight="1100" math="0" shadow="0">
            <root>
                <mxCell id="0"/>
                <mxCell id="1" parent="0"/>
                <mxCell id="wcIOKsvVGP52Rn1BRWFJ-5" value="ExcelManipulation" style="swimlane;fontStyle=1;align=center;verticalAlign=top;childLayout=stackLayout;horizontal=1;startSize=26;horizontalStack=0;resizeParent=1;resizeParentMax=0;resizeLast=0;collapsible=1;marginBottom=0;" vertex="1" parent="1">
                    <mxGeometry x="390" y="80" width="160" height="88" as="geometry"/>
                </mxCell>
                <mxCell id="wcIOKsvVGP52Rn1BRWFJ-6" value="+ path: type" style="text;strokeColor=none;fillColor=none;align=left;verticalAlign=top;spacingLeft=4;spacingRight=4;overflow=hidden;rotatable=0;points=[[0,0.5],[1,0.5]];portConstraint=eastwest;" vertex="1" parent="wcIOKsvVGP52Rn1BRWFJ-5">
                    <mxGeometry y="26" width="160" height="26" as="geometry"/>
                </mxCell>
                <mxCell id="wcIOKsvVGP52Rn1BRWFJ-7" value="" style="line;strokeWidth=1;fillColor=none;align=left;verticalAlign=middle;spacingTop=-1;spacingLeft=3;spacingRight=3;rotatable=0;labelPosition=right;points=[];portConstraint=eastwest;" vertex="1" parent="wcIOKsvVGP52Rn1BRWFJ-5">
                    <mxGeometry y="52" width="160" height="10" as="geometry"/>
                </mxCell>
                <mxCell id="wcIOKsvVGP52Rn1BRWFJ-8" value="+ method(type): type" style="text;strokeColor=none;fillColor=none;align=left;verticalAlign=top;spacingLeft=4;spacingRight=4;overflow=hidden;rotatable=0;points=[[0,0.5],[1,0.5]];portConstraint=eastwest;" vertex="1" parent="wcIOKsvVGP52Rn1BRWFJ-5">
                    <mxGeometry y="62" width="160" height="26" as="geometry"/>
                </mxCell>
            </root>
        </mxGraphModel>
    </diagram>
</mxfile>